# xmcd
#
# Track frame offsets:
#	150
#	18304
#	33876
#	52506
#	71669
#	88068
#	108411
#	122992
#	139766
#	157051
#	173508
#	193200
#	210778
#	228417
#	249659
#	268117
#	294948
#
# Disc length: 4170 seconds
#
# Revision: 0
# Processed by: cddbd v1.5.1PL0 Copyright (c) Steve Scherf et al.
# Submitted via: EasyCDDAExtractor 8.0.1.2
#
DISCID=e7104811
DTITLE=Various Artist - Happosadetta (Extended)
DYEAR=2003
DGENRE=SuomiRock
TTITLE0=Verenpisara - Arvetkin Kauneuspilkuiksi
TTITLE1=Verenpisara - Yön Karnevaalit
TTITLE2=Verenpisara - Me Tapoimme Tunteen
TTITLE3=Verenpisara - Juomarahat
TTITLE4=Verenpisara - Kyllä Me
TTITLE5=Verenpisara - Helminauha
TTITLE6=Verenpisara - Galleria
TTITLE7=Verenpisara - Tunne Hiekka Jalkojen Alla
TTITLE8=Verenpisara - Pakoon
TTITLE9=Verenpisara - Rakkauden Esikoinen
TTITLE10=Verenpisara - Happosadetta
TTITLE11=Verenpisara - Me Tapoimme Tunteen (Single Edit)
TTITLE12=Verenpisara - Kun Uni Kuolee (Live)
TTITLE13=Verenpisara - Syntyminen (Kirkkoversio)
TTITLE14=Verenpisara - Rasputin
TTITLE15=Amorphis - Kuusamo
TTITLE16=Denigrate - Mombasa
EXTD=
EXTT0=
EXTT1=
EXTT2=
EXTT3=
EXTT4=
EXTT5=
EXTT6=
EXTT7=
EXTT8=
EXTT9=
EXTT10=
EXTT11=
EXTT12=
EXTT13=
EXTT14=
EXTT15=
EXTT16=
PLAYORDER=
